<svg width="350" height="308" viewBox="0 0 350 308" fill="none" xmlns="http://www.w3.org/2000/svg">
<rect y="181" width="350" height="126" rx="53" fill="#4AD3FF"/>
<path d="M205.95 0.159041C204.123 0.532878 202.985 1.13102 201.736 2.38337C200.375 3.74788 199.722 4.98154 199.107 7.22456C198.585 9.20589 198.529 13.8789 199.014 15.6733C200.151 19.8602 202.426 22.0472 206.473 22.8696L206.995 22.9818L206.51 23.7668C203.713 28.3463 201.587 34.496 199.983 42.683C199.405 45.6737 198.883 47.7485 198.435 48.9261C197.801 50.6083 197.746 50.7018 196.925 51.0756C195.993 51.4869 193.606 51.599 191.741 51.2999C190.809 51.1504 190.79 51.1504 190.492 51.7112C190.324 52.0289 190.193 52.6831 190.193 53.1504C190.193 53.8607 190.287 54.1224 190.734 54.571C191.088 54.9262 191.48 55.1131 191.816 55.1131C192.543 55.1131 194.184 54.6084 195.265 54.0663C195.75 53.8233 196.198 53.6177 196.235 53.6177C196.291 53.6177 196.011 54.1785 195.62 54.8701C195.191 55.6365 194.706 56.2346 194.408 56.3841C194.128 56.5337 193.046 56.8327 192.002 57.0757C187.62 58.0664 184.543 59.73 181.28 62.8702C178.054 65.9357 175.592 69.6927 173.765 74.3096C172.553 77.3564 171.882 81.4686 171.882 85.8612C171.863 90.6463 172.627 94.1417 174.436 97.824C177.681 104.385 183.592 108.946 191.909 111.301C194.258 111.955 195.359 112.553 198.473 114.908C201.606 117.282 202.799 117.992 206.174 119.6C208.169 120.553 208.617 120.834 208.449 121.021C208.151 121.376 207.89 121.357 204.776 120.721C198.752 119.488 191.909 117.581 189.932 116.572C189.522 116.366 188.664 115.806 188.049 115.357C184.711 112.852 179.415 111.207 175.462 111.432C169.588 111.787 166.157 115.095 164.385 122.123C163.229 126.759 162.875 131.226 163.416 134.348C164.329 139.582 167.332 142.797 172.534 144.105C174.791 144.684 179.303 144.797 182.772 144.367L185.457 144.049L187.639 145.208C189.261 146.068 189.82 146.46 189.82 146.722C189.82 147.002 189.69 147.077 189.093 147.077C186.818 147.077 181.877 149.058 179.285 151.021C177.55 152.329 175.406 154.498 174.082 156.273C173.038 157.657 172.963 157.713 171.956 157.937C170.259 158.292 167.033 158.199 165.392 157.731C160.395 156.329 157.784 155.918 155.341 156.143C150.306 156.61 147.901 158.722 146.782 163.619C145.7 168.348 145.738 170.872 146.913 174.685C147.323 176.031 147.92 177.676 148.255 178.33C149.71 181.208 152.619 184.909 156.013 188.199C161.514 193.526 166.53 196.05 171.602 196.05C173.728 196.05 175.294 195.676 177.327 194.685C178.651 194.031 179.285 193.545 181.298 191.62C185.531 187.526 188.44 185.694 191.256 185.302L192.226 185.171L194.053 187.021C200.356 193.358 207.983 197.377 216.579 198.872C219.209 199.321 224.505 199.47 227.675 199.171L229.278 199.022L229.763 200.012C230.938 202.424 232.821 204.293 235.134 205.377C236.961 206.237 238.341 206.536 240.914 206.648C244.756 206.816 249.026 206.087 254.881 204.274C257.79 203.358 257.958 203.339 260.177 203.339C261.445 203.339 263.273 203.209 264.242 203.04C266.499 202.667 269.855 201.545 272.056 200.442C273.007 199.975 275.039 199.022 276.606 198.349C281.976 196.012 283.692 195.04 285.575 193.246C286.34 192.517 286.955 192.106 287.533 191.956C289.995 191.264 292.736 188.928 294.227 186.255C296.297 182.591 297.845 176.61 298.367 170.442C298.703 166.161 298.349 162.124 297.323 158.909C297.081 158.105 296.931 157.395 297.006 157.339C297.081 157.264 297.789 156.685 298.61 156.049C299.84 155.077 300.157 154.703 300.586 153.75C301.295 152.18 301.985 149.899 302.47 147.6C303.066 144.834 303.066 140.329 302.47 137.395C300.866 129.226 296.167 121.806 287.906 114.348C286.265 112.871 284.922 111.619 284.922 111.544C284.922 111.469 285.743 110.759 286.75 109.974C287.738 109.17 289.566 107.488 290.815 106.254C297.342 99.7118 300.996 92.0108 301.91 82.8705C302.19 79.9919 302.022 74.59 301.593 72.7769C301.164 71.0385 301.183 70.7768 301.761 67.7862C302.041 66.3656 302.395 64.1786 302.563 62.9263C302.973 59.786 303.122 52.571 302.843 49.5616C302.637 47.5055 302.47 46.3279 301.761 42.2905L301.668 41.711L304.558 41.4867C307.747 41.2437 308.81 41.0007 310.749 40.0288C315.075 37.8605 318.618 33.7857 319.961 29.4118C320.464 27.7856 320.763 24.2341 320.52 22.6827C320.185 20.5705 318.861 18.2714 316.847 16.2901C315.914 15.3555 315.448 15.0564 314.609 14.7948C313.378 14.4209 311.066 14.3835 310.003 14.7013C308.772 15.0564 307.076 16.2153 304.968 18.1032C303.868 19.0752 302.582 20.1219 302.078 20.4023C300.885 21.0939 298.349 21.5986 295.272 21.7668L292.829 21.8977L291.841 20.664C288.521 16.477 281.081 12.4022 271.776 9.71057C265.007 7.74793 256.951 6.4395 250.331 6.2152C248.802 6.15912 247.161 6.10305 246.695 6.06566C245.203 5.95351 238.285 6.28997 235.786 6.60773C232.896 6.96287 228.588 7.80401 226.313 8.47691C222.416 9.59842 218.388 8.62645 215.647 5.86005C215.032 5.24322 214.025 3.99087 213.428 3.07497C212.179 1.20578 211.284 0.458111 209.941 0.177733C208.878 -0.0465694 207.051 -0.0652612 205.95 0.159041Z" fill="#FC7CB2"/>
<path d="M44.944 284.685C42.896 284.685 41.36 284.525 40.336 284.205C39.696 284.013 39.248 283.661 38.992 283.149C38.8 282.637 38.704 281.933 38.704 281.037C38.64 279.693 38.608 277.805 38.608 275.373C38.608 273.453 38.672 270.829 38.8 267.501L38.896 259.821C38.96 258.413 38.992 256.333 38.992 253.581C38.992 251.533 38.96 249.997 38.896 248.973L38.704 237.069C38.704 230.925 38.64 226.317 38.512 223.245C38.448 221.517 38.416 218.957 38.416 215.565C38.416 214.349 38.608 213.549 38.992 213.165C39.44 212.781 40.304 212.557 41.584 212.493L44.944 212.397C47.632 212.205 50.256 212.109 52.816 212.109C53.776 212.109 54.672 212.429 55.504 213.069C55.952 213.453 56.176 213.965 56.176 214.605C56.176 215.309 55.824 215.853 55.12 216.237C53.968 216.813 52.848 217.101 51.76 217.101C47.6 217.101 45.136 217.229 44.368 217.485C43.664 217.741 43.312 218.381 43.312 219.405C43.312 220.365 43.312 221.133 43.312 221.709L43.408 225.741C43.536 229.325 43.6 232.013 43.6 233.805C43.6 236.045 43.568 237.741 43.504 238.893C43.44 239.277 43.408 239.629 43.408 239.949C43.472 240.269 43.504 240.557 43.504 240.813C43.568 241.261 43.6 242.093 43.6 243.309C46.992 243.117 49.68 243.821 51.664 245.421C53.584 247.021 55.248 249.677 56.656 253.389C58.064 257.101 58.768 260.973 58.768 265.005C58.768 266.221 58.736 267.117 58.672 267.693C58.224 271.469 57.072 274.797 55.216 277.677C53.744 279.789 52.144 281.357 50.416 282.381C50.096 282.573 49.584 282.893 48.88 283.341C48.176 283.725 47.504 284.045 46.864 284.301C46.224 284.557 45.584 284.685 44.944 284.685ZM44.368 279.021C46.48 278.701 48.272 277.805 49.744 276.333C51.28 274.861 52.272 272.973 52.72 270.669C53.296 268.621 53.584 266.317 53.584 263.757C53.584 260.877 53.232 258.029 52.528 255.213C52.272 254.189 51.856 253.197 51.28 252.237C50.704 251.277 50.096 250.381 49.456 249.549C48.88 248.717 48.464 248.109 48.208 247.725C47.504 247.469 46.8 247.341 46.096 247.341L43.696 247.437C43.824 251.405 43.952 257.421 44.08 265.485L44.368 279.021ZM72.3258 285.261C71.1098 285.261 70.0538 285.101 69.1578 284.781C68.0698 284.461 67.5258 283.565 67.5258 282.093V226.317C67.5258 225.229 67.3338 223.597 66.9498 221.421C66.5018 219.437 66.2778 217.805 66.2778 216.525V216.237C67.3658 214.445 68.1658 213.293 68.6778 212.781C69.5738 212.781 70.7578 212.653 72.2298 212.397C73.5738 212.141 74.7578 212.013 75.7818 212.013C76.8058 212.013 77.7978 212.333 78.7578 212.973C79.7178 213.549 80.1978 214.253 80.1978 215.085C80.1978 217.005 78.7258 217.965 75.7818 217.965H74.4378C74.0538 217.901 73.6058 217.869 73.0938 217.869C72.5178 217.869 72.1658 217.901 72.0378 217.965C72.0378 220.141 72.1658 222.765 72.4218 225.837L72.6138 228.525L72.8058 233.805C72.8058 235.021 72.7098 236.877 72.5178 239.373L72.3258 244.749L73.6698 244.461C74.9498 244.077 76.0058 243.885 76.8378 243.885C77.5418 243.885 78.1818 244.173 78.7578 244.749C79.3338 245.261 79.6218 245.869 79.6218 246.573C79.6218 247.341 79.3658 248.045 78.8538 248.685C78.4058 249.261 77.8298 249.549 77.1258 249.549L75.9738 249.453H74.7258C73.7658 249.453 73.0938 249.677 72.7098 250.125V279.789L78.0858 279.501C81.7338 279.501 83.5578 280.333 83.5578 281.997V282.381C83.1738 283.149 82.4698 283.789 81.4458 284.301C80.4218 284.749 79.4298 285.037 78.4698 285.165L75.3018 285.261H72.3258ZM97.1245 284.685C96.4845 284.685 96.0045 284.525 95.6845 284.205C95.4285 283.821 95.2365 283.213 95.1085 282.381C94.9165 280.525 94.8525 278.861 94.9165 277.389C95.1085 275.213 95.2045 271.917 95.2045 267.501C95.2045 263.533 95.1085 259.597 94.9165 255.693C94.7885 251.725 94.7245 248.717 94.7245 246.669C94.7245 246.029 94.6925 245.485 94.6285 245.037C94.5645 244.589 94.5005 244.205 94.4365 243.885L94.1485 240.909C94.0205 238.861 93.8925 235.725 93.7645 231.501L93.5725 226.893C93.5085 224.973 93.3485 221.933 93.0925 217.773C92.9645 216.365 93.1245 215.341 93.5725 214.701C94.0205 214.061 94.9485 213.613 96.3565 213.357C96.8045 213.229 97.7645 213.005 99.2365 212.685C100.709 212.301 102.085 212.109 103.365 212.109C103.941 212.109 104.389 212.141 104.709 212.205C105.349 212.269 105.829 212.493 106.149 212.877C106.533 213.261 106.725 213.741 106.725 214.317C106.789 214.893 106.661 215.501 106.341 216.141C106.021 216.717 105.605 217.101 105.093 217.293C104.901 217.357 104.549 217.389 104.037 217.389C103.653 217.389 103.237 217.357 102.789 217.293C102.405 217.229 101.957 217.197 101.445 217.197C100.741 217.197 100.069 217.293 99.4285 217.485C98.9805 217.549 98.6605 217.773 98.4685 218.157C98.3405 218.477 98.2445 218.989 98.1805 219.693C98.1165 221.933 98.2765 225.229 98.6605 229.581C99.0445 233.421 99.2365 236.269 99.2365 238.125C99.1725 239.341 99.2685 241.101 99.5245 243.405L99.7165 245.709C99.8445 247.757 99.9725 251.277 100.101 256.269C100.229 261.197 100.325 265.645 100.389 269.613C100.389 271.789 100.421 273.389 100.484 274.413C100.484 277.677 100.516 280.109 100.581 281.709C100.645 282.605 100.453 283.309 100.005 283.821C99.6205 284.269 98.9165 284.525 97.8925 284.589L97.1245 284.685ZM123.138 285.261C121.922 285.261 120.866 285.101 119.97 284.781C118.882 284.461 118.338 283.565 118.338 282.093V226.317C118.338 225.229 118.146 223.597 117.762 221.421C117.314 219.437 117.09 217.805 117.09 216.525V216.237C118.178 214.445 118.978 213.293 119.49 212.781C120.386 212.781 121.57 212.653 123.042 212.397C124.386 212.141 125.57 212.013 126.594 212.013C127.618 212.013 128.61 212.333 129.57 212.973C130.53 213.549 131.01 214.253 131.01 215.085C131.01 217.005 129.538 217.965 126.594 217.965H125.25C124.866 217.901 124.418 217.869 123.906 217.869C123.33 217.869 122.978 217.901 122.85 217.965C122.85 220.141 122.978 222.765 123.234 225.837L123.426 228.525L123.618 233.805C123.618 235.021 123.522 236.877 123.33 239.373L123.138 244.749L124.482 244.461C125.762 244.077 126.818 243.885 127.65 243.885C128.354 243.885 128.994 244.173 129.57 244.749C130.146 245.261 130.434 245.869 130.434 246.573C130.434 247.341 130.178 248.045 129.666 248.685C129.218 249.261 128.642 249.549 127.938 249.549L126.786 249.453H125.538C124.578 249.453 123.906 249.677 123.522 250.125V279.789L128.898 279.501C132.546 279.501 134.37 280.333 134.37 281.997V282.381C133.986 283.149 133.282 283.789 132.258 284.301C131.234 284.749 130.242 285.037 129.282 285.165L126.114 285.261H123.138ZM172.033 287.181C171.393 287.181 170.881 286.861 170.497 286.221C170.113 285.581 169.921 284.653 169.921 283.437L169.825 269.229C169.761 268.013 169.729 265.997 169.729 263.181C169.601 257.229 169.537 250.509 169.537 243.021V238.125C168.961 241.197 167.969 245.517 166.561 251.085C165.153 256.845 164.161 261.581 163.585 265.293V265.869L163.297 267.693C163.169 269.101 162.849 270.541 162.337 272.013C161.697 273.549 160.705 274.317 159.361 274.317C157.057 274.317 155.905 271.309 155.905 265.293C155.905 261.965 155.553 258.413 154.849 254.637C154.209 250.797 153.153 246.093 151.681 240.525L148.801 229.773L148.609 241.293C148.609 244.749 148.769 251.341 149.089 261.069L149.281 267.597L149.473 280.749C149.473 282.093 148.993 283.309 148.033 284.397C146.433 284.397 145.313 283.917 144.673 282.957C144.097 281.933 143.809 280.461 143.809 278.541L144.001 270.669C144.193 267.213 144.289 264.621 144.289 262.893L144.097 244.365L143.905 225.741C143.905 222.989 143.969 218.861 144.097 213.357L146.689 211.821C147.201 211.885 147.713 212.269 148.225 212.973C148.737 213.613 149.313 214.669 149.953 216.141C151.553 220.109 153.633 228.045 156.193 239.949C156.577 241.613 156.833 242.989 156.961 244.077C157.729 247.789 158.273 250.605 158.593 252.525L160.033 259.917L160.705 256.749L162.529 248.877C163.553 244.269 164.385 240.237 165.025 236.781C165.729 233.325 166.401 229.581 167.041 225.549C167.745 220.749 168.193 216.749 168.385 213.549V212.973C168.513 212.141 168.897 211.501 169.537 211.053C170.177 210.541 170.945 210.285 171.841 210.285C172.417 210.285 172.929 210.541 173.377 211.053C173.825 211.565 174.049 212.109 174.049 212.685C174.049 220.365 174.337 231.853 174.913 247.149C175.233 254.637 175.457 261.965 175.585 269.133C175.713 272.397 175.777 276.525 175.777 281.517C175.777 282.989 175.393 284.301 174.625 285.453C173.857 286.605 172.993 287.181 172.033 287.181ZM200.461 287.373C198.733 287.373 197.165 286.797 195.757 285.645C194.349 284.493 193.133 282.925 192.109 280.941C190.253 277.485 188.877 272.749 187.981 266.733C187.341 262.573 186.861 257.773 186.541 252.333L186.445 247.245V242.061C186.381 240.397 186.349 238.381 186.349 236.013C186.349 232.173 186.509 228.781 186.829 225.837C187.085 222.765 187.725 219.725 188.749 216.717C189.773 214.093 191.245 212.237 193.165 211.149C194.317 210.637 195.469 210.381 196.621 210.381C200.013 210.381 202.701 211.725 204.685 214.413C206.861 217.421 208.301 220.781 209.005 224.493C210.029 228.973 210.605 233.261 210.733 237.357C210.989 241.901 211.117 246.189 211.117 250.221V255.693C211.117 256.781 210.957 258.829 210.637 261.837C210.381 264.205 210.253 266.221 210.253 267.885V268.269C209.869 270.061 209.677 272.173 209.677 274.605C209.677 276.397 209.293 278.253 208.525 280.173C207.757 282.093 206.669 283.725 205.261 285.069C203.853 286.605 202.253 287.373 200.461 287.373ZM200.653 282.093C201.933 282.093 203.021 280.909 203.917 278.541C204.685 276.429 205.229 273.869 205.549 270.861C205.933 267.789 206.253 264.333 206.509 260.493C206.637 258.829 206.701 256.685 206.701 254.061L206.605 245.229C206.477 241.773 206.093 237.453 205.453 232.269C204.941 227.853 203.981 223.949 202.573 220.557C201.933 218.957 201.133 217.709 200.173 216.813C199.213 215.917 198.189 215.469 197.101 215.469C195.501 215.469 194.317 216.717 193.549 219.213C192.589 221.837 191.949 224.717 191.629 227.853C191.245 231.245 191.021 234.477 190.957 237.549L190.861 240.717C190.797 241.613 190.765 242.829 190.765 244.365V244.749C190.765 249.037 191.213 254.317 192.109 260.589C193.133 269.101 194.637 275.149 196.621 278.733C197.901 280.973 199.245 282.093 200.653 282.093ZM229.21 285.357C228.25 285.357 227.482 284.909 226.906 284.013C226.394 283.053 226.138 281.901 226.138 280.557C226.138 278.445 226.266 275.853 226.522 272.781L226.714 270.285L226.906 265.197C226.906 262.957 226.682 257.965 226.234 250.221C225.786 242.477 225.562 237.485 225.562 235.245C225.562 235.053 225.562 234.701 225.562 234.189C225.626 233.613 225.658 232.749 225.658 231.597C225.722 230.317 225.754 228.749 225.754 226.893C225.754 222.221 225.434 219.245 224.794 217.965C224.41 217.965 223.578 218.061 222.298 218.253L219.61 218.445C218.778 218.445 218.042 218.221 217.402 217.773C216.762 217.261 216.442 216.621 216.442 215.853C216.442 215.085 217.21 214.413 218.746 213.837C220.986 213.069 224.794 212.525 230.17 212.205C232.346 212.077 233.658 212.013 234.106 212.013C234.874 212.013 235.578 212.269 236.218 212.781C236.858 213.293 237.178 213.933 237.178 214.701C237.178 215.469 236.89 216.109 236.314 216.621C235.802 217.069 235.13 217.293 234.298 217.293L232.57 217.197C232.058 217.133 231.482 217.101 230.842 217.101H229.882C230.33 221.453 230.554 225.389 230.554 228.909L230.458 235.053C230.394 236.909 230.362 238.989 230.362 241.293C230.362 244.365 230.49 248.045 230.746 252.333C231.066 257.645 231.226 261.325 231.226 263.373C231.226 265.805 231.354 268.685 231.61 272.013C231.866 275.405 231.994 278.285 231.994 280.653C231.994 283.789 231.066 285.357 229.21 285.357ZM250.879 285.645C249.919 285.645 249.055 285.229 248.287 284.397C247.519 283.565 247.167 282.637 247.231 281.613C247.423 278.349 247.519 275.021 247.519 271.629C247.519 268.685 247.455 264.205 247.327 258.189C247.263 255.437 247.039 251.309 246.655 245.805C246.591 244.717 246.495 243.149 246.367 241.101C246.239 238.989 246.143 237.133 246.079 235.533C246.015 234.445 245.983 232.813 245.983 230.637L246.079 220.845C246.079 220.269 246.015 219.469 245.887 218.445L245.791 216.237C245.791 215.213 246.047 214.413 246.559 213.837C247.135 213.261 247.871 212.973 248.767 212.973C250.623 212.973 251.679 213.837 251.935 215.565C252.191 217.485 252.319 218.925 252.319 219.885C252.319 221.037 252.223 222.189 252.031 223.341C251.711 225.709 251.551 227.853 251.551 229.773L251.647 232.653C251.903 238.541 252.031 243.949 252.031 248.877V260.301C252.031 262.285 252.095 265.261 252.223 269.229L252.799 269.325L253.951 265.581C255.871 259.117 257.695 253.229 259.423 247.917C260.319 245.421 261.279 241.549 262.303 236.301C262.751 233.997 263.167 232.141 263.551 230.733L268.351 213.453C268.799 212.621 269.343 212.013 269.983 211.629C270.623 211.181 271.263 210.989 271.903 211.053C272.671 211.245 273.407 211.789 274.111 212.685C274.815 213.517 275.135 214.349 275.071 215.181C275.007 217.421 274.815 219.757 274.495 222.189C273.919 230.189 273.599 235.213 273.535 237.261C273.279 245.837 273.151 252.269 273.151 256.557C273.151 258.605 273.311 261.837 273.631 266.253C273.951 270.605 274.143 273.485 274.207 274.893L274.591 279.693C274.655 281.037 274.335 282.093 273.631 282.861C272.927 283.629 271.999 284.013 270.847 284.013C270.143 284.013 269.535 283.789 269.023 283.341C268.511 282.829 268.223 282.157 268.159 281.325V280.461L268.255 261.165V257.709C268.127 254.381 267.999 249.261 267.871 242.349V238.413V232.077C267.807 232.013 267.647 231.981 267.391 231.981C267.007 232.045 266.431 233.517 265.663 236.397C264.959 239.213 264.287 242.061 263.647 244.941C263.007 247.757 262.591 249.549 262.399 250.317C261.823 253.069 261.471 254.637 261.343 255.021C259.551 261.101 258.111 266.189 257.023 270.285C255.935 274.317 255.039 278.413 254.335 282.573C253.951 284.621 252.799 285.645 250.879 285.645ZM304.926 286.317C303.262 286.317 301.822 285.677 300.606 284.397C299.454 283.117 298.814 281.549 298.686 279.693C298.302 277.005 298.046 272.685 297.918 266.733L297.726 260.781C297.726 259.117 297.214 257.517 296.19 255.981C295.166 254.381 293.854 253.453 292.254 253.197C292.702 266.509 292.926 276.365 292.926 282.765C292.926 284.557 292.286 285.453 291.006 285.453C290.494 285.453 289.982 285.325 289.47 285.069C288.254 284.493 287.742 283.565 287.934 282.285C288.446 278.509 288.702 274.765 288.702 271.053C288.702 268.365 288.606 265.549 288.414 262.605C288.35 261.197 288.318 259.053 288.318 256.173C288.254 255.277 288.222 253.869 288.222 251.949C287.966 241.453 287.678 233.549 287.358 228.237C287.166 225.037 286.686 220.941 285.918 215.949C285.854 215.693 285.822 215.309 285.822 214.797C285.822 212.813 286.654 211.661 288.318 211.341C289.278 211.149 290.046 211.437 290.622 212.205C291.262 212.909 291.614 213.837 291.678 214.989C291.742 215.821 291.806 216.813 291.87 217.965C291.934 219.053 291.966 219.917 291.966 220.557L292.062 223.725C292.19 227.437 292.254 230.157 292.254 231.885V248.973C292.83 247.629 293.534 245.549 294.366 242.733C295.198 239.917 295.838 237.517 296.286 235.533C296.478 234.509 296.67 233.261 296.862 231.789C297.118 230.317 297.31 229.197 297.438 228.429C297.886 224.333 298.462 221.037 299.166 218.541C299.998 215.597 301.566 213.453 303.87 212.109C304.83 211.533 305.63 211.245 306.27 211.245C306.718 211.245 307.326 211.405 308.094 211.725C309.118 212.173 309.63 213.133 309.63 214.605C309.63 215.693 308.958 216.397 307.614 216.717C305.054 217.165 303.39 218.861 302.622 221.805C302.174 223.597 301.758 225.549 301.374 227.661C300.926 230.477 300.542 232.301 300.222 233.133C299.134 236.461 298.526 239.149 298.398 241.197C298.206 242.925 297.918 244.461 297.534 245.805C297.15 247.085 296.542 248.173 295.71 249.069C297.31 249.325 298.686 250.445 299.838 252.429C300.99 254.413 301.726 257.005 302.046 260.205C302.302 262.445 302.718 267.309 303.294 274.797L303.486 276.909C303.678 278.509 304.446 279.405 305.79 279.597C306.814 279.917 307.55 280.333 307.998 280.845C308.446 281.293 308.67 281.933 308.67 282.765C308.67 283.789 308.318 284.621 307.614 285.261C306.91 285.965 306.014 286.317 304.926 286.317Z" fill="white"/>
</svg>
