<svg width="28" height="34" viewBox="0 0 28 34" fill="none" xmlns="http://www.w3.org/2000/svg">
<path d="M17 1.7251H5C4.20435 1.7251 3.44129 2.04117 2.87868 2.60378C2.31607 3.16639 2 3.92945 2 4.7251V28.7251C2 29.5207 2.31607 30.2838 2.87868 30.8464C3.44129 31.409 4.20435 31.7251 5 31.7251H23C23.7956 31.7251 24.5587 31.409 25.1213 30.8464C25.6839 30.2838 26 29.5207 26 28.7251V10.7251L17 1.7251Z" stroke="#CC61FF" stroke-width="3" stroke-linecap="round" stroke-linejoin="round"/>
<path d="M17.0001 1.7251V10.7251H26.0001" stroke="#CC61FF" stroke-width="3" stroke-linecap="round" stroke-linejoin="round"/>
<path d="M20 18.225H8.00005" stroke="#CC61FF" stroke-width="3" stroke-linecap="round" stroke-linejoin="round"/>
<path d="M20 24.2249H8.00005" stroke="#CC61FF" stroke-width="3" stroke-linecap="round" stroke-linejoin="round"/>
<path d="M11 12.2252H9.50005H8.00005" stroke="#CC61FF" stroke-width="3" stroke-linecap="round" stroke-linejoin="round"/>
</svg>
