<svg width="34" height="29" viewBox="0 0 34 29" fill="none" xmlns="http://www.w3.org/2000/svg">
<path d="M1.75781 3.81598V11.9978H9.93963" stroke="#FF3CB1" stroke-width="3" stroke-linecap="round" stroke-linejoin="round"/>
<path d="M31.7578 25.6341V17.4523H23.576" stroke="#FF3CB1" stroke-width="3" stroke-linecap="round" stroke-linejoin="round"/>
<path d="M28.3351 10.6343C27.6435 8.6799 26.4681 6.93256 24.9185 5.55531C23.369 4.17805 21.4958 3.21578 19.4738 2.75827C17.4518 2.30076 15.3468 2.36293 13.3553 2.93897C11.3638 3.51502 9.55065 4.58616 8.08509 6.05246L1.75781 11.9979M31.7578 17.4525L25.4305 23.3979C23.965 24.8642 22.1518 25.9354 20.1603 26.5114C18.1688 27.0875 16.0639 27.1496 14.0418 26.6921C12.0198 26.2346 10.1466 25.2723 8.59709 23.8951C7.04754 22.5178 5.87213 20.7705 5.18054 18.8161" stroke="#FF3CB1" stroke-width="3" stroke-linecap="round" stroke-linejoin="round"/>
</svg>
